<?xml version="1.0" encoding="UTF-8" standalone="no"?>
<svg width="1024" height="1024" viewBox="0 0 1024 1024" fill="none" xmlns="http://www.w3.org/2000/svg">
  <!-- Background circle -->
  <circle cx="512" cy="512" r="512" fill="#675AF2"/>
  
  <!-- Letter S in white -->
  <path d="M512 200C406.4 200 320 286.4 320 392C320 456 352 512 416 544L608 640C640 656 656 688 656 720C656 768 616 808 568 808C520 808 480 768 480 720H320C320 856 424 960 560 960C696 960 800 856 800 720C800 656 768 600 704 568L512 472C480 456 464 424 464 392C464 344 504 304 552 304C600 304 640 344 640 392H800C800 286.4 713.6 200 608 200H512Z" fill="white"/>
</svg>
