<?xml version="1.0" encoding="UTF-8"?>
<svg width="256px" height="256px" viewBox="0 0 256 256" version="1.1" xmlns="http://www.w3.org/2000/svg" preserveAspectRatio="xMidYMid">
    <g>
        <path d="M128,0 C57.308,0 0,57.308 0,128 C0,198.692 57.308,256 128,256 C198.692,256 256,198.692 256,128 C256,57.308 198.692,0 128,0 Z" fill="#675AF2"></path>
        <path d="M128,42.667 C81.067,42.667 42.667,81.067 42.667,128 C42.667,174.933 81.067,213.333 128,213.333 C174.933,213.333 213.333,174.933 213.333,128 C213.333,81.067 174.933,42.667 128,42.667 Z M128,64 C162.667,64 192,93.333 192,128 C192,162.667 162.667,192 128,192 C93.333,192 64,162.667 64,128 C64,93.333 93.333,64 128,64 Z" fill="#FFFFFF"></path>
        <path d="M85.333,128 L170.667,128 M128,85.333 L128,170.667" stroke="#FFFFFF" stroke-width="10" stroke-linecap="round"></path>
        <circle cx="128" cy="128" r="21.333" fill="#FFFFFF"></circle>
        <circle cx="85.333" cy="128" r="10.667" fill="#FFFFFF"></circle>
        <circle cx="170.667" cy="128" r="10.667" fill="#FFFFFF"></circle>
        <circle cx="128" cy="85.333" r="10.667" fill="#FFFFFF"></circle>
        <circle cx="128" cy="170.667" r="10.667" fill="#FFFFFF"></circle>
    </g>
</svg>
