<?xml version="1.0" encoding="UTF-8"?>
<svg width="256px" height="256px" viewBox="0 0 256 256" version="1.1" xmlns="http://www.w3.org/2000/svg" preserveAspectRatio="xMidYMid">
    <g>
        <path d="M128,0 C57.308,0 0,57.308 0,128 C0,198.692 57.308,256 128,256 C198.692,256 256,198.692 256,128 C256,57.308 198.692,0 128,0 Z M128,40 C169.421,40 203.2,73.779 203.2,115.2 C203.2,156.621 169.421,190.4 128,190.4 C86.579,190.4 52.8,156.621 52.8,115.2 C52.8,73.779 86.579,40 128,40 Z" fill="#675AF2"></path>
        <circle cx="128" cy="115.2" r="25.6" fill="#675AF2"></circle>
        <path d="M128,153.6 C102.4,153.6 76.8,166.4 76.8,192 L76.8,204.8 C92.8,220.8 108.8,230.4 128,230.4 C147.2,230.4 163.2,220.8 179.2,204.8 L179.2,192 C179.2,166.4 153.6,153.6 128,153.6 Z" fill="#675AF2"></path>
    </g>
</svg>
